<?xml version="1.0" encoding="UTF-8"?>
<!-- Do not edit this file with editors other than draw.io -->
<!DOCTYPE svg PUBLIC "-//W3C//DTD SVG 1.1//EN" "http://www.w3.org/Graphics/SVG/1.1/DTD/svg11.dtd">
<svg xmlns="http://www.w3.org/2000/svg" style="background: transparent; background-color: transparent; color-scheme: light dark;" xmlns:xlink="http://www.w3.org/1999/xlink" version="1.1" width="768px" height="111px" viewBox="-0.5 -0.5 768 111" content="&lt;mxfile host=&quot;app.diagrams.net&quot; agent=&quot;Mozilla/5.0 (Windows NT 10.0; Win64; x64) AppleWebKit/537.36 (KHTML, like Gecko) Chrome/133.0.0.0 Safari/537.36&quot; version=&quot;26.1.0&quot;&gt;&#10;  &lt;diagram name=&quot;Page-1&quot; id=&quot;Kve_PI5Ersv6nPETgMGS&quot;&gt;&#10;    &lt;mxGraphModel dx=&quot;207&quot; dy=&quot;657&quot; grid=&quot;1&quot; gridSize=&quot;10&quot; guides=&quot;1&quot; tooltips=&quot;1&quot; connect=&quot;1&quot; arrows=&quot;1&quot; fold=&quot;1&quot; page=&quot;1&quot; pageScale=&quot;1&quot; pageWidth=&quot;1169&quot; pageHeight=&quot;827&quot; background=&quot;none&quot; math=&quot;0&quot; shadow=&quot;0&quot;&gt;&#10;      &lt;root&gt;&#10;        &lt;mxCell id=&quot;0&quot; /&gt;&#10;        &lt;mxCell id=&quot;1&quot; parent=&quot;0&quot; /&gt;&#10;        &lt;mxCell id=&quot;2&quot; value=&quot;&quot; style=&quot;group;rounded=1;fillColor=#09555B;strokeColor=#BAC8D3;labelBackgroundColor=none;fontColor=#EEEEEE;&quot; parent=&quot;1&quot; connectable=&quot;0&quot; vertex=&quot;1&quot;&gt;&#10;          &lt;mxGeometry x=&quot;1561&quot; y=&quot;151.5&quot; width=&quot;93.75&quot; height=&quot;97&quot; as=&quot;geometry&quot; /&gt;&#10;        &lt;/mxCell&gt;&#10;        &lt;mxCell id=&quot;3&quot; value=&quot;&quot; style=&quot;group;labelBackgroundColor=none;fontColor=#EEEEEE;&quot; parent=&quot;2&quot; vertex=&quot;1&quot; connectable=&quot;0&quot;&gt;&#10;          &lt;mxGeometry width=&quot;90.94&quot; height=&quot;97&quot; as=&quot;geometry&quot; /&gt;&#10;        &lt;/mxCell&gt;&#10;        &lt;mxCell id=&quot;4&quot; value=&quot;&quot; style=&quot;dashed=0;html=1;shape=mxgraph.aws3.instance;fillColor=#09555B;dashed=0;rounded=1;labelBackgroundColor=none;strokeColor=#BAC8D3;fontColor=#EEEEEE;&quot; parent=&quot;3&quot; vertex=&quot;1&quot;&gt;&#10;          &lt;mxGeometry width=&quot;90.94&quot; height=&quot;97&quot; as=&quot;geometry&quot; /&gt;&#10;        &lt;/mxCell&gt;&#10;        &lt;mxCell id=&quot;5&quot; value=&quot;&quot; style=&quot;outlineConnect=0;dashed=0;verticalLabelPosition=bottom;verticalAlign=middle;align=center;html=1;shape=mxgraph.aws3.cloud_2;fillColor=#09555B;shadow=0;perimeterSpacing=0;rounded=1;labelBackgroundColor=none;strokeColor=#BAC8D3;fontColor=#EEEEEE;&quot; parent=&quot;3&quot; vertex=&quot;1&quot;&gt;&#10;          &lt;mxGeometry x=&quot;3.031333333333333&quot; y=&quot;9.09375&quot; width=&quot;84.87733333333333&quot; height=&quot;78.8125&quot; as=&quot;geometry&quot; /&gt;&#10;        &lt;/mxCell&gt;&#10;        &lt;mxCell id=&quot;10&quot; value=&quot;&quot; style=&quot;group;rounded=1;labelBackgroundColor=none;fontColor=#EEEEEE;fillColor=none;&quot; parent=&quot;1&quot; connectable=&quot;0&quot; vertex=&quot;1&quot;&gt;&#10;          &lt;mxGeometry x=&quot;1343&quot; y=&quot;170&quot; width=&quot;56.25&quot; height=&quot;60&quot; as=&quot;geometry&quot; /&gt;&#10;        &lt;/mxCell&gt;&#10;        &lt;mxCell id=&quot;11&quot; value=&quot;&quot; style=&quot;dashed=0;html=1;shape=mxgraph.aws3.instance;fillColor=#09555B;dashed=0;rounded=1;labelBackgroundColor=none;strokeColor=#BAC8D3;fontColor=#EEEEEE;&quot; parent=&quot;10&quot; vertex=&quot;1&quot;&gt;&#10;          &lt;mxGeometry width=&quot;56.25&quot; height=&quot;60&quot; as=&quot;geometry&quot; /&gt;&#10;        &lt;/mxCell&gt;&#10;        &lt;mxCell id=&quot;12&quot; value=&quot;&quot; style=&quot;shape=image;html=1;verticalAlign=top;verticalLabelPosition=bottom;labelBackgroundColor=none;imageAspect=0;aspect=fixed;image=https://cdn3.iconfinder.com/data/icons/social-media-chamfered-corner/154/telegram-128.png;rounded=1;spacing=2;spacingTop=2;fillColor=#09555B;strokeColor=#BAC8D3;fontColor=#EEEEEE;&quot; parent=&quot;10&quot; vertex=&quot;1&quot;&gt;&#10;          &lt;mxGeometry x=&quot;3.1299999999999955&quot; y=&quot;5&quot; width=&quot;50&quot; height=&quot;50&quot; as=&quot;geometry&quot; /&gt;&#10;        &lt;/mxCell&gt;&#10;        &lt;mxCell id=&quot;13&quot; style=&quot;edgeStyle=orthogonalEdgeStyle;shape=connector;curved=1;rounded=1;jumpStyle=arc;orthogonalLoop=1;jettySize=auto;html=1;entryX=0;entryY=0.5;entryDx=0;entryDy=0;entryPerimeter=0;dashed=1;labelBackgroundColor=none;strokeColor=#0B4D6A;strokeWidth=2;align=center;verticalAlign=middle;fontFamily=Helvetica;fontSize=11;fontColor=default;startArrow=none;startFill=0;endArrow=classic;flowAnimation=1;&quot; parent=&quot;1&quot; source=&quot;12&quot; target=&quot;4&quot; edge=&quot;1&quot;&gt;&#10;          &lt;mxGeometry relative=&quot;1&quot; as=&quot;geometry&quot;&gt;&#10;            &lt;mxPoint x=&quot;1573&quot; y=&quot;197&quot; as=&quot;targetPoint&quot; /&gt;&#10;          &lt;/mxGeometry&gt;&#10;        &lt;/mxCell&gt;&#10;        &lt;mxCell id=&quot;15&quot; style=&quot;edgeStyle=orthogonalEdgeStyle;rounded=0;orthogonalLoop=1;jettySize=auto;html=1;strokeColor=#0B4D6A;dashed=1;strokeWidth=2;flowAnimation=1;entryX=-0.034;entryY=0.511;entryDx=0;entryDy=0;entryPerimeter=0;labelBackgroundColor=none;fontColor=default;&quot; parent=&quot;1&quot; source=&quot;16&quot; target=&quot;18&quot; edge=&quot;1&quot;&gt;&#10;          &lt;mxGeometry relative=&quot;1&quot; as=&quot;geometry&quot;&gt;&#10;            &lt;mxPoint x=&quot;1960&quot; y=&quot;200&quot; as=&quot;targetPoint&quot; /&gt;&#10;          &lt;/mxGeometry&gt;&#10;        &lt;/mxCell&gt;&#10;        &lt;mxCell id=&quot;16&quot; value=&quot;&quot; style=&quot;image;aspect=fixed;html=1;points=[];align=center;fontSize=12;image=img/lib/mscae/Chart.svg;fixDash=0;imageBackground=default;labelBackgroundColor=none;spacingTop=3;imageBorder=none;fillStyle=solid;fillColor=#09555B;strokeColor=#BAC8D3;fontColor=#EEEEEE;&quot; parent=&quot;1&quot; vertex=&quot;1&quot;&gt;&#10;          &lt;mxGeometry x=&quot;1800&quot; y=&quot;153.4&quot; width=&quot;97.08&quot; height=&quot;93.2&quot; as=&quot;geometry&quot; /&gt;&#10;        &lt;/mxCell&gt;&#10;        &lt;mxCell id=&quot;17&quot; style=&quot;edgeStyle=orthogonalEdgeStyle;rounded=0;orthogonalLoop=1;jettySize=auto;html=1;entryX=0;entryY=0.5;entryDx=0;entryDy=0;entryPerimeter=0;strokeColor=#0B4D6A;dashed=1;flowAnimation=1;strokeWidth=2;labelBackgroundColor=none;fontColor=default;&quot; parent=&quot;1&quot; source=&quot;5&quot; target=&quot;16&quot; edge=&quot;1&quot;&gt;&#10;          &lt;mxGeometry relative=&quot;1&quot; as=&quot;geometry&quot; /&gt;&#10;        &lt;/mxCell&gt;&#10;        &lt;mxCell id=&quot;18&quot; value=&quot;&quot; style=&quot;shape=image;html=1;verticalAlign=top;verticalLabelPosition=bottom;labelBackgroundColor=none;imageAspect=0;aspect=fixed;image=https://cdn4.iconfinder.com/data/icons/success-filloutline/64/Income-cash-money-banking-business-128.png;imageBackground=default;fillStyle=auto;shadow=0;imageBorder=none;fillColor=#09555B;strokeColor=#BAC8D3;fontColor=#EEEEEE;&quot; parent=&quot;1&quot; vertex=&quot;1&quot;&gt;&#10;          &lt;mxGeometry x=&quot;2000&quot; y=&quot;144.75&quot; width=&quot;110.5&quot; height=&quot;110.5&quot; as=&quot;geometry&quot; /&gt;&#10;        &lt;/mxCell&gt;&#10;      &lt;/root&gt;&#10;    &lt;/mxGraphModel&gt;&#10;  &lt;/diagram&gt;&#10;&lt;/mxfile&gt;&#10;" resource="https://app.diagrams.net/#HFabioPereira445%2FProjeto-04%2Fmain%2FDiagrama%20sem%20nome.drawio.svg#%7B%22pageId%22%3A%22Kve_PI5Ersv6nPETgMGS%22%7D"><defs><style>@keyframes ge-flow-animation-cbH5KrUA4womnj-QT1gr {&#xa;  to {&#xa;    stroke-dashoffset: 0;&#xa;  }&#xa;}</style></defs><g><g data-cell-id="0"><g data-cell-id="1"><g data-cell-id="2"><g><rect x="218" y="6.5" width="93.75" height="97" rx="14.06" ry="14.06" fill="#09555b" stroke="#bac8d3" pointer-events="all" style="fill: light-dark(rgb(9, 85, 91), rgb(126, 191, 196)); stroke: light-dark(rgb(186, 200, 211), rgb(57, 69, 78));"/></g><g data-cell-id="3"><g/><g data-cell-id="4"><g><path d="M 233.6 103.5 C 224.59 103.5 218 95.62 218 87.86 L 218 21.95 C 218 14.68 224.22 6.5 233.92 6.5 L 293.55 6.5 C 301.85 6.5 308.94 13.7 308.94 22.21 L 308.94 87.63 C 308.94 96.65 301.69 103.5 293.27 103.5 Z" fill="#09555b" stroke="none" pointer-events="all" style="fill: light-dark(rgb(9, 85, 91), rgb(126, 191, 196));"/><path d="M 233.6 103.5 C 224.59 103.5 218 95.65 218 87.86 L 218 83.42 C 218 92.56 225.52 99.29 233.74 99.29 L 293.39 99.29 C 301.69 99.29 308.94 92.33 308.94 83.38 L 308.94 87.63 C 308.94 96.65 301.71 103.5 293.27 103.5 Z" fill-opacity="0.3" fill="#000000" stroke="none" pointer-events="all" style="fill: light-dark(rgb(0, 0, 0), rgb(237, 237, 237));"/></g></g><g data-cell-id="5"><g><rect x="221.03" y="15.59" width="84.88" height="78.81" fill="#09555b" stroke="none" pointer-events="all" style="fill: light-dark(rgb(9, 85, 91), rgb(126, 191, 196));"/><path d="M 290.02 62.88 C 289.18 61.87 284.57 62.43 282.51 62.66 C 281.9 62.77 281.78 62.21 282.39 61.87 C 286.14 59.5 292.21 60.18 292.81 60.97 C 293.54 61.76 292.57 67.38 289.18 70.09 C 288.69 70.54 288.08 70.31 288.33 69.75 C 289.18 67.95 290.87 63.89 290.02 62.88 Z M 287.36 65.7 C 280.93 70.09 271.47 72.45 263.47 72.45 C 252.19 72.45 241.89 68.51 234.25 62.09 C 233.64 61.53 234.13 60.85 234.85 61.31 C 243.22 65.81 253.53 68.51 264.08 68.51 C 271.23 68.51 279.11 67.16 286.39 64.23 C 287.48 63.89 288.45 65.02 287.36 65.7 Z M 250.62 51.62 C 250.62 52.3 250.74 52.86 250.86 53.2 C 250.98 53.65 251.22 53.99 251.47 54.55 C 251.59 54.66 251.59 54.89 251.59 55 C 251.59 55.23 251.47 55.34 251.22 55.56 L 250.01 56.35 C 249.77 56.46 249.65 56.46 249.53 56.46 C 249.28 56.46 249.16 56.35 248.92 56.24 C 248.68 56.01 248.43 55.68 248.19 55.34 C 247.95 55 247.83 54.66 247.59 54.21 C 246.01 55.9 244.07 56.69 241.77 56.69 C 240.07 56.69 238.86 56.24 237.89 55.34 C 236.92 54.44 236.43 53.31 236.43 51.85 C 236.43 50.27 237.04 49.03 238.25 48.13 C 239.46 47.23 241.04 46.67 243.1 46.67 C 243.71 46.67 244.43 46.67 245.16 46.78 C 245.89 46.89 246.62 47.01 247.46 47.23 L 247.46 45.99 C 247.46 44.64 247.1 43.63 246.49 43.07 C 245.89 42.5 244.8 42.16 243.34 42.16 C 242.61 42.16 242.01 42.28 241.28 42.39 C 240.55 42.5 239.83 42.73 239.22 43.07 C 238.86 43.18 238.61 43.29 238.49 43.29 C 238.37 43.29 238.25 43.29 238.13 43.29 C 237.89 43.29 237.76 43.07 237.76 42.73 L 237.76 41.83 C 237.76 41.49 237.76 41.26 237.89 41.15 C 238.01 41.04 238.13 40.93 238.49 40.81 C 239.22 40.48 239.95 40.25 240.92 40.03 C 241.89 39.8 242.86 39.69 243.95 39.69 C 246.25 39.69 247.95 40.14 249.04 41.15 C 250.13 42.16 250.62 43.63 250.62 45.66 L 250.62 51.62 Z M 242.61 54.44 C 243.22 54.44 243.95 54.32 244.68 54.1 C 245.4 53.87 246.01 53.54 246.49 52.97 C 246.86 52.64 246.98 52.3 247.22 51.85 C 247.34 51.4 247.46 50.83 247.46 50.27 L 247.46 49.37 C 246.86 49.26 246.25 49.15 245.65 49.03 C 245.04 48.92 244.43 48.92 243.83 48.92 C 242.49 48.92 241.52 49.15 240.92 49.71 C 240.31 50.16 239.95 50.95 239.95 51.85 C 239.95 52.75 240.19 53.31 240.67 53.76 C 241.04 54.21 241.64 54.44 242.61 54.44 Z M 258.38 56.35 C 258.01 56.35 257.77 56.24 257.65 56.13 C 257.53 56.01 257.41 55.79 257.29 55.45 L 252.56 41.38 C 252.44 41.04 252.44 40.81 252.44 40.59 C 252.44 40.25 252.56 40.14 252.92 40.14 L 254.86 40.14 C 255.22 40.14 255.47 40.25 255.59 40.36 C 255.71 40.48 255.83 40.7 255.95 41.04 L 259.23 53.09 L 262.26 41.04 C 262.38 40.7 262.5 40.48 262.62 40.36 C 262.74 40.25 262.98 40.14 263.47 40.14 L 265.05 40.14 C 265.41 40.14 265.65 40.25 265.9 40.36 C 266.02 40.48 266.14 40.7 266.26 41.04 L 269.41 53.31 L 272.81 41.04 C 272.93 40.7 273.05 40.48 273.17 40.36 C 273.29 40.25 273.53 40.14 273.9 40.14 L 275.72 40.14 C 276.08 40.14 276.2 40.25 276.2 40.59 C 276.2 40.7 276.2 40.81 276.2 40.93 C 276.2 41.04 276.08 41.15 276.08 41.38 L 271.35 55.45 C 271.23 55.79 271.11 56.01 270.99 56.13 C 270.87 56.24 270.62 56.35 270.26 56.35 L 268.56 56.35 C 268.2 56.35 267.96 56.24 267.71 56.13 C 267.59 56.01 267.47 55.79 267.35 55.34 L 264.32 43.74 L 261.29 55.45 C 261.17 55.79 261.04 56.01 260.92 56.24 C 260.8 56.35 260.44 56.46 260.07 56.46 L 258.38 56.46 Z M 283.6 56.91 C 282.51 56.91 281.54 56.8 280.57 56.58 C 279.6 56.35 278.87 56.13 278.26 55.79 C 277.9 55.56 277.78 55.45 277.66 55.23 C 277.54 55 277.54 54.89 277.54 54.66 L 277.54 53.87 C 277.54 53.54 277.66 53.31 278.02 53.31 C 278.14 53.31 278.26 53.31 278.38 53.42 C 278.51 53.42 278.63 53.54 278.87 53.65 C 279.48 53.87 280.2 54.1 281.05 54.32 C 281.78 54.44 282.63 54.55 283.36 54.55 C 284.57 54.55 285.54 54.32 286.27 53.99 C 286.99 53.54 287.24 52.97 287.24 52.3 C 287.24 51.73 287.11 51.4 286.75 51.06 C 286.39 50.72 285.78 50.38 284.81 50.05 L 281.9 49.26 C 280.45 48.81 279.35 48.24 278.75 47.46 C 278.14 46.67 277.78 45.77 277.78 44.75 C 277.78 43.97 277.9 43.29 278.26 42.73 C 278.63 42.16 279.11 41.6 279.72 41.26 C 280.32 40.81 280.93 40.59 281.78 40.36 C 282.51 40.14 283.36 40.03 284.2 40.03 C 284.69 40.03 285.05 40.03 285.54 40.14 C 286.02 40.14 286.39 40.25 286.75 40.36 C 287.11 40.48 287.48 40.59 287.84 40.7 C 288.21 40.81 288.45 40.93 288.69 41.04 C 288.93 41.15 289.18 41.38 289.3 41.49 C 289.42 41.6 289.42 41.83 289.42 42.05 L 289.42 42.95 C 289.42 43.29 289.3 43.52 288.93 43.52 C 288.81 43.52 288.57 43.4 288.21 43.29 C 287.11 42.84 285.78 42.62 284.45 42.62 C 283.36 42.62 282.51 42.84 281.78 43.18 C 281.17 43.52 280.81 44.08 280.81 44.75 C 280.81 45.32 281.05 45.66 281.42 45.99 C 281.78 46.33 282.51 46.67 283.6 47.01 L 286.39 47.79 C 287.84 48.24 288.81 48.81 289.42 49.6 C 290.02 50.38 290.39 51.17 290.39 52.19 C 290.39 52.97 290.27 53.65 289.9 54.32 C 289.54 55 289.05 55.45 288.45 55.9 C 287.84 56.35 287.11 56.69 286.27 56.91 C 285.54 56.8 284.69 56.91 283.6 56.91 Z" fill="#ffffff" stroke="none" pointer-events="all" style="fill: light-dark(rgb(255, 255, 255), rgb(18, 18, 18));"/></g></g></g></g><g data-cell-id="10"><g/><g data-cell-id="11"><g><path d="M 9.65 85 C 4.07 85 0 80.13 0 75.33 L 0 34.56 C 0 30.06 3.85 25 9.85 25 L 46.73 25 C 51.86 25 56.25 29.45 56.25 34.72 L 56.25 75.18 C 56.25 80.76 51.77 85 46.56 85 Z" fill="#09555b" stroke="none" pointer-events="all" style="fill: light-dark(rgb(9, 85, 91), rgb(126, 191, 196));"/><path d="M 9.65 85 C 4.07 85 0 80.14 0 75.33 L 0 72.58 C 0 78.23 4.65 82.4 9.73 82.4 L 46.63 82.4 C 51.77 82.4 56.25 78.09 56.25 72.55 L 56.25 75.18 C 56.25 80.76 51.78 85 46.56 85 Z" fill-opacity="0.3" fill="#000000" stroke="none" pointer-events="all" style="fill: light-dark(rgb(0, 0, 0), rgb(237, 237, 237));"/></g></g><g data-cell-id="12"><g><image x="2.63" y="29.5" width="50" height="50" xlink:href="https://cdn3.iconfinder.com/data/icons/social-media-chamfered-corner/154/telegram-128.png" preserveAspectRatio="none"/></g></g></g><g data-cell-id="13"><g><path d="M 53.13 55 Q 53.13 55 209.76 55" fill="none" stroke="#0b4d6a" stroke-width="2" stroke-miterlimit="10" stroke-dasharray="6 6" pointer-events="stroke" style="stroke: light-dark(rgb(11, 77, 106), rgb(135, 192, 217)); animation: 375ms linear 0s infinite normal none running ge-flow-animation-cbH5KrUA4womnj-QT1gr; stroke-dashoffset: 12;"/><path d="M 215.76 55 L 207.76 59 L 209.76 55 L 207.76 51 Z" fill="#0b4d6a" stroke="#0b4d6a" stroke-width="2" stroke-miterlimit="10" pointer-events="all" style="fill: light-dark(rgb(11, 77, 106), rgb(135, 192, 217)); stroke: light-dark(rgb(11, 77, 106), rgb(135, 192, 217));"/></g></g><g data-cell-id="15"><g><path d="M 554.08 55.07 L 605.6 55.07 L 645.01 56.02" fill="none" stroke="#0b4d6a" stroke-width="2" stroke-miterlimit="10" stroke-dasharray="6 6" pointer-events="stroke" style="stroke: light-dark(rgb(11, 77, 106), rgb(135, 192, 217)); animation: 375ms linear 0s infinite normal none running ge-flow-animation-cbH5KrUA4womnj-QT1gr; stroke-dashoffset: 12;"/><path d="M 651.01 56.16 L 642.91 59.97 L 645.01 56.02 L 643.11 51.97 Z" fill="#0b4d6a" stroke="#0b4d6a" stroke-width="2" stroke-miterlimit="10" pointer-events="all" style="fill: light-dark(rgb(11, 77, 106), rgb(135, 192, 217)); stroke: light-dark(rgb(11, 77, 106), rgb(135, 192, 217));"/></g></g><g data-cell-id="16"><g><rect x="457" y="8.4" width="97.08" height="93.2" fill="#ffffff" stroke="none" pointer-events="all" style="fill: light-dark(#ffffff, var(--ge-dark-color, #121212));"/><image x="456.5" y="7.9" width="97.08" height="93.2" xlink:href="https://app.diagrams.net/img/lib/mscae/Chart.svg"/></g></g><g data-cell-id="17"><g><path d="M 305.91 55 L 448.76 55" fill="none" stroke="#0b4d6a" stroke-width="2" stroke-miterlimit="10" stroke-dasharray="6 6" pointer-events="stroke" style="stroke: light-dark(rgb(11, 77, 106), rgb(135, 192, 217)); animation: 375ms linear 0s infinite normal none running ge-flow-animation-cbH5KrUA4womnj-QT1gr; stroke-dashoffset: 12;"/><path d="M 454.76 55 L 446.76 59 L 448.76 55 L 446.76 51 Z" fill="#0b4d6a" stroke="#0b4d6a" stroke-width="2" stroke-miterlimit="10" pointer-events="all" style="fill: light-dark(rgb(11, 77, 106), rgb(135, 192, 217)); stroke: light-dark(rgb(11, 77, 106), rgb(135, 192, 217));"/></g></g><g data-cell-id="18"><g><rect x="657" y="-0.25" width="110.5" height="110.5" fill="#ffffff" stroke="none" pointer-events="all" style="fill: light-dark(#ffffff, var(--ge-dark-color, #121212));"/><image x="656.5" y="-0.75" width="110.5" height="110.5" xlink:href="https://cdn4.iconfinder.com/data/icons/success-filloutline/64/Income-cash-money-banking-business-128.png" preserveAspectRatio="none"/></g></g></g></g></g></svg>