<?xml version="1.0" encoding="UTF-8"?>
<!-- Do not edit this file with editors other than draw.io -->
<!DOCTYPE svg PUBLIC "-//W3C//DTD SVG 1.1//EN" "http://www.w3.org/Graphics/SVG/1.1/DTD/svg11.dtd">
<svg xmlns="http://www.w3.org/2000/svg" style="background: #ffffff; background-color: light-dark(#ffffff, #121212); color-scheme: light dark;" xmlns:xlink="http://www.w3.org/1999/xlink" version="1.1" width="819" height="122" viewBox="-0.5 -0.5 819 122" content="&lt;mxfile host=&quot;app.diagrams.net&quot; agent=&quot;Mozilla/5.0 (Windows NT 10.0; Win64; x64) AppleWebKit/537.36 (KHTML, like Gecko) Chrome/133.0.0.0 Safari/537.36&quot; version=&quot;26.1.0&quot;&gt;&#10;  &lt;diagram name=&quot;Page-1&quot; id=&quot;Kve_PI5Ersv6nPETgMGS&quot;&gt;&#10;    &lt;mxGraphModel dx=&quot;-289&quot; dy=&quot;426&quot; grid=&quot;1&quot; gridSize=&quot;10&quot; guides=&quot;1&quot; tooltips=&quot;1&quot; connect=&quot;1&quot; arrows=&quot;1&quot; fold=&quot;1&quot; page=&quot;1&quot; pageScale=&quot;1&quot; pageWidth=&quot;1169&quot; pageHeight=&quot;827&quot; background=&quot;#ffffff&quot; math=&quot;0&quot; shadow=&quot;1&quot;&gt;&#10;      &lt;root&gt;&#10;        &lt;mxCell id=&quot;0&quot; /&gt;&#10;        &lt;mxCell id=&quot;1&quot; parent=&quot;0&quot; /&gt;&#10;        &lt;mxCell id=&quot;2&quot; value=&quot;&quot; style=&quot;group;rounded=1;fillColor=#f8cecc;strokeColor=#b85450;gradientColor=default;&quot; parent=&quot;1&quot; connectable=&quot;0&quot; vertex=&quot;1&quot;&gt;&#10;          &lt;mxGeometry x=&quot;1561&quot; y=&quot;151.5&quot; width=&quot;93.75&quot; height=&quot;97&quot; as=&quot;geometry&quot; /&gt;&#10;        &lt;/mxCell&gt;&#10;        &lt;mxCell id=&quot;3&quot; value=&quot;&quot; style=&quot;group&quot; parent=&quot;2&quot; vertex=&quot;1&quot; connectable=&quot;0&quot;&gt;&#10;          &lt;mxGeometry width=&quot;90.94&quot; height=&quot;97&quot; as=&quot;geometry&quot; /&gt;&#10;        &lt;/mxCell&gt;&#10;        &lt;mxCell id=&quot;4&quot; value=&quot;&quot; style=&quot;dashed=0;html=1;shape=mxgraph.aws3.instance;fillColor=#F58536;gradientColor=none;dashed=0;rounded=1;&quot; parent=&quot;3&quot; vertex=&quot;1&quot;&gt;&#10;          &lt;mxGeometry width=&quot;90.94&quot; height=&quot;97&quot; as=&quot;geometry&quot; /&gt;&#10;        &lt;/mxCell&gt;&#10;        &lt;mxCell id=&quot;5&quot; value=&quot;&quot; style=&quot;outlineConnect=0;dashed=0;verticalLabelPosition=bottom;verticalAlign=middle;align=center;html=1;shape=mxgraph.aws3.cloud_2;fillColor=#F58536;gradientColor=none;shadow=0;perimeterSpacing=0;rounded=1;&quot; parent=&quot;3&quot; vertex=&quot;1&quot;&gt;&#10;          &lt;mxGeometry x=&quot;3.031333333333333&quot; y=&quot;9.09375&quot; width=&quot;84.87733333333333&quot; height=&quot;78.8125&quot; as=&quot;geometry&quot; /&gt;&#10;        &lt;/mxCell&gt;&#10;        &lt;mxCell id=&quot;10&quot; value=&quot;&quot; style=&quot;group;rounded=1;&quot; parent=&quot;1&quot; connectable=&quot;0&quot; vertex=&quot;1&quot;&gt;&#10;          &lt;mxGeometry x=&quot;1343&quot; y=&quot;170&quot; width=&quot;56.25&quot; height=&quot;60&quot; as=&quot;geometry&quot; /&gt;&#10;        &lt;/mxCell&gt;&#10;        &lt;mxCell id=&quot;11&quot; value=&quot;&quot; style=&quot;dashed=0;html=1;shape=mxgraph.aws3.instance;fillColor=#25a0de;gradientColor=none;dashed=0;rounded=1;&quot; parent=&quot;10&quot; vertex=&quot;1&quot;&gt;&#10;          &lt;mxGeometry width=&quot;56.25&quot; height=&quot;60&quot; as=&quot;geometry&quot; /&gt;&#10;        &lt;/mxCell&gt;&#10;        &lt;mxCell id=&quot;12&quot; value=&quot;&quot; style=&quot;shape=image;html=1;verticalAlign=top;verticalLabelPosition=bottom;labelBackgroundColor=none;imageAspect=0;aspect=fixed;image=https://cdn3.iconfinder.com/data/icons/social-media-chamfered-corner/154/telegram-128.png;rounded=1;spacing=2;spacingTop=2;&quot; parent=&quot;10&quot; vertex=&quot;1&quot;&gt;&#10;          &lt;mxGeometry x=&quot;3.1299999999999955&quot; y=&quot;5&quot; width=&quot;50&quot; height=&quot;50&quot; as=&quot;geometry&quot; /&gt;&#10;        &lt;/mxCell&gt;&#10;        &lt;mxCell id=&quot;13&quot; style=&quot;edgeStyle=orthogonalEdgeStyle;shape=connector;curved=1;rounded=1;jumpStyle=arc;orthogonalLoop=1;jettySize=auto;html=1;entryX=0;entryY=0.5;entryDx=0;entryDy=0;entryPerimeter=0;dashed=1;labelBackgroundColor=default;strokeColor=#6c8ebf;strokeWidth=2;align=center;verticalAlign=middle;fontFamily=Helvetica;fontSize=11;fontColor=default;startArrow=none;startFill=0;endArrow=classic;flowAnimation=1;fillColor=#dae8fc;&quot; parent=&quot;1&quot; source=&quot;12&quot; target=&quot;4&quot; edge=&quot;1&quot;&gt;&#10;          &lt;mxGeometry relative=&quot;1&quot; as=&quot;geometry&quot;&gt;&#10;            &lt;mxPoint x=&quot;1573&quot; y=&quot;197&quot; as=&quot;targetPoint&quot; /&gt;&#10;          &lt;/mxGeometry&gt;&#10;        &lt;/mxCell&gt;&#10;        &lt;mxCell id=&quot;15&quot; style=&quot;edgeStyle=orthogonalEdgeStyle;rounded=0;orthogonalLoop=1;jettySize=auto;html=1;strokeColor=#6c8ebf;fillColor=#dae8fc;dashed=1;strokeWidth=2;flowAnimation=1;entryX=-0.034;entryY=0.511;entryDx=0;entryDy=0;entryPerimeter=0;gradientColor=#7ea6e0;&quot; parent=&quot;1&quot; source=&quot;16&quot; target=&quot;18&quot; edge=&quot;1&quot;&gt;&#10;          &lt;mxGeometry relative=&quot;1&quot; as=&quot;geometry&quot;&gt;&#10;            &lt;mxPoint x=&quot;1960&quot; y=&quot;200&quot; as=&quot;targetPoint&quot; /&gt;&#10;          &lt;/mxGeometry&gt;&#10;        &lt;/mxCell&gt;&#10;        &lt;mxCell id=&quot;16&quot; value=&quot;&quot; style=&quot;image;aspect=fixed;html=1;points=[];align=center;fontSize=12;image=img/lib/mscae/Chart.svg;fixDash=0;imageBackground=default;labelBackgroundColor=none;spacingTop=3;imageBorder=none;fillStyle=solid;&quot; parent=&quot;1&quot; vertex=&quot;1&quot;&gt;&#10;          &lt;mxGeometry x=&quot;1800&quot; y=&quot;156.8&quot; width=&quot;90&quot; height=&quot;86.4&quot; as=&quot;geometry&quot; /&gt;&#10;        &lt;/mxCell&gt;&#10;        &lt;mxCell id=&quot;17&quot; style=&quot;edgeStyle=orthogonalEdgeStyle;rounded=0;orthogonalLoop=1;jettySize=auto;html=1;entryX=0;entryY=0.5;entryDx=0;entryDy=0;entryPerimeter=0;fillColor=#ffe6cc;strokeColor=#d79b00;dashed=1;flowAnimation=1;strokeWidth=2;&quot; parent=&quot;1&quot; source=&quot;5&quot; target=&quot;16&quot; edge=&quot;1&quot;&gt;&#10;          &lt;mxGeometry relative=&quot;1&quot; as=&quot;geometry&quot; /&gt;&#10;        &lt;/mxCell&gt;&#10;        &lt;mxCell id=&quot;18&quot; value=&quot;&quot; style=&quot;shape=image;html=1;verticalAlign=top;verticalLabelPosition=bottom;labelBackgroundColor=#ffffff;imageAspect=0;aspect=fixed;image=https://cdn4.iconfinder.com/data/icons/success-filloutline/64/Income-cash-money-banking-business-128.png;imageBackground=default;fillStyle=auto;shadow=0;&quot; parent=&quot;1&quot; vertex=&quot;1&quot;&gt;&#10;          &lt;mxGeometry x=&quot;2040&quot; y=&quot;143.5&quot; width=&quot;110.5&quot; height=&quot;110.5&quot; as=&quot;geometry&quot; /&gt;&#10;        &lt;/mxCell&gt;&#10;      &lt;/root&gt;&#10;    &lt;/mxGraphModel&gt;&#10;  &lt;/diagram&gt;&#10;&lt;/mxfile&gt;&#10;" resource="https://app.diagrams.net/#HFabioPereira445%2FProjeto-04%2Fmain%2FDiagrama%20sem%20nome.drawio.svg#%7B%22pageId%22%3A%22Kve_PI5Ersv6nPETgMGS%22%7D"><defs><linearGradient x1="0%" y1="0%" x2="0%" y2="100%" id="drawio-svg-IQOyMdt4fAza60d_Neib-gradient-light-dark_f8cecc_512d2b_-1-light-dark_000000_ffffff_-1-s-0"><stop offset="0%" stop-color="#f8cecc" stop-opacity="1" style="stop-color: light-dark(rgb(248, 206, 204), rgb(81, 45, 43)); stop-opacity: 1;"/><stop offset="100%" stop-color="#000000" stop-opacity="1" style="stop-color: light-dark(rgb(0, 0, 0), rgb(255, 255, 255)); stop-opacity: 1;"/></linearGradient><style>@keyframes ge-flow-animation-PfJCYjbcLmRAFkZlCOa0 {&#xa;  to {&#xa;    stroke-dashoffset: 0;&#xa;  }&#xa;}</style><filter id="drawio-drop-shadow"><feGaussianBlur in="SourceAlpha" stdDeviation="1.7" result="blur"/><feOffset in="blur" dx="3" dy="3" result="offsetBlur"/><feFlood flood-color="#3D4574" flood-opacity="0.4" result="offsetColor"/><feComposite in="offsetColor" in2="offsetBlur" operator="in" result="offsetBlur"/><feBlend in="SourceGraphic" in2="offsetBlur"/></filter></defs><rect fill="#ffffff" width="100%" height="100%" x="0" y="0" style="fill: light-dark(rgb(255, 255, 255), rgb(18, 18, 18));"/><g filter="url(#drawio-drop-shadow)"><g data-cell-id="0"><g data-cell-id="1"><g data-cell-id="2"><g><rect x="218" y="7.5" width="93.75" height="97" rx="14.06" ry="14.06" fill="url(#drawio-svg-IQOyMdt4fAza60d_Neib-gradient-light-dark_f8cecc_512d2b_-1-light-dark_000000_ffffff_-1-s-0)" stroke="#b85450" pointer-events="all" style="fill: url(&quot;#drawio-svg-IQOyMdt4fAza60d_Neib-gradient-light-dark_f8cecc_512d2b_-1-light-dark_000000_ffffff_-1-s-0&quot;); stroke: light-dark(rgb(184, 84, 80), rgb(215, 129, 126));"/></g><g data-cell-id="3"><g/><g data-cell-id="4"><g><path d="M 233.6 104.5 C 224.59 104.5 218 96.62 218 88.86 L 218 22.95 C 218 15.68 224.22 7.5 233.92 7.5 L 293.55 7.5 C 301.85 7.5 308.94 14.7 308.94 23.21 L 308.94 88.63 C 308.94 97.65 301.69 104.5 293.27 104.5 Z" fill="#f58536" stroke="none" pointer-events="all" style="fill: light-dark(rgb(245, 133, 54), rgb(189, 92, 24));"/><path d="M 233.6 104.5 C 224.59 104.5 218 96.65 218 88.86 L 218 84.42 C 218 93.56 225.52 100.29 233.74 100.29 L 293.39 100.29 C 301.69 100.29 308.94 93.33 308.94 84.38 L 308.94 88.63 C 308.94 97.65 301.71 104.5 293.27 104.5 Z" fill-opacity="0.3" fill="#000000" stroke="none" pointer-events="all" style="fill: light-dark(rgb(0, 0, 0), rgb(237, 237, 237));"/></g></g><g data-cell-id="5"><g><rect x="221.03" y="16.59" width="84.88" height="78.81" fill="#f58536" stroke="none" pointer-events="all" style="fill: light-dark(rgb(245, 133, 54), rgb(189, 92, 24));"/><path d="M 290.02 63.88 C 289.18 62.87 284.57 63.43 282.51 63.66 C 281.9 63.77 281.78 63.21 282.39 62.87 C 286.14 60.5 292.21 61.18 292.81 61.97 C 293.54 62.76 292.57 68.38 289.18 71.09 C 288.69 71.54 288.08 71.31 288.33 70.75 C 289.18 68.95 290.87 64.89 290.02 63.88 Z M 287.36 66.7 C 280.93 71.09 271.47 73.45 263.47 73.45 C 252.19 73.45 241.89 69.51 234.25 63.09 C 233.64 62.53 234.13 61.85 234.85 62.31 C 243.22 66.81 253.53 69.51 264.08 69.51 C 271.23 69.51 279.11 68.16 286.39 65.23 C 287.48 64.89 288.45 66.02 287.36 66.7 Z M 250.62 52.62 C 250.62 53.3 250.74 53.86 250.86 54.2 C 250.98 54.65 251.22 54.99 251.47 55.55 C 251.59 55.66 251.59 55.89 251.59 56 C 251.59 56.23 251.47 56.34 251.22 56.56 L 250.01 57.35 C 249.77 57.46 249.65 57.46 249.53 57.46 C 249.28 57.46 249.16 57.35 248.92 57.24 C 248.68 57.01 248.43 56.68 248.19 56.34 C 247.95 56 247.83 55.66 247.59 55.21 C 246.01 56.9 244.07 57.69 241.77 57.69 C 240.07 57.69 238.86 57.24 237.89 56.34 C 236.92 55.44 236.43 54.31 236.43 52.85 C 236.43 51.27 237.04 50.03 238.25 49.13 C 239.46 48.23 241.04 47.67 243.1 47.67 C 243.71 47.67 244.43 47.67 245.16 47.78 C 245.89 47.89 246.62 48.01 247.46 48.23 L 247.46 46.99 C 247.46 45.64 247.1 44.63 246.49 44.07 C 245.89 43.5 244.8 43.16 243.34 43.16 C 242.61 43.16 242.01 43.28 241.28 43.39 C 240.55 43.5 239.83 43.73 239.22 44.07 C 238.86 44.18 238.61 44.29 238.49 44.29 C 238.37 44.29 238.25 44.29 238.13 44.29 C 237.89 44.29 237.76 44.07 237.76 43.73 L 237.76 42.83 C 237.76 42.49 237.76 42.26 237.89 42.15 C 238.01 42.04 238.13 41.93 238.49 41.81 C 239.22 41.48 239.95 41.25 240.92 41.03 C 241.89 40.8 242.86 40.69 243.95 40.69 C 246.25 40.69 247.95 41.14 249.04 42.15 C 250.13 43.16 250.62 44.63 250.62 46.66 L 250.62 52.62 Z M 242.61 55.44 C 243.22 55.44 243.95 55.32 244.68 55.1 C 245.4 54.87 246.01 54.54 246.49 53.97 C 246.86 53.64 246.98 53.3 247.22 52.85 C 247.34 52.4 247.46 51.83 247.46 51.27 L 247.46 50.37 C 246.86 50.26 246.25 50.15 245.65 50.03 C 245.04 49.92 244.43 49.92 243.83 49.92 C 242.49 49.92 241.52 50.15 240.92 50.71 C 240.31 51.16 239.95 51.95 239.95 52.85 C 239.95 53.75 240.19 54.31 240.67 54.76 C 241.04 55.21 241.64 55.44 242.61 55.44 Z M 258.38 57.35 C 258.01 57.35 257.77 57.24 257.65 57.13 C 257.53 57.01 257.41 56.79 257.29 56.45 L 252.56 42.38 C 252.44 42.04 252.44 41.81 252.44 41.59 C 252.44 41.25 252.56 41.14 252.92 41.14 L 254.86 41.14 C 255.22 41.14 255.47 41.25 255.59 41.36 C 255.71 41.48 255.83 41.7 255.95 42.04 L 259.23 54.09 L 262.26 42.04 C 262.38 41.7 262.5 41.48 262.62 41.36 C 262.74 41.25 262.98 41.14 263.47 41.14 L 265.05 41.14 C 265.41 41.14 265.65 41.25 265.9 41.36 C 266.02 41.48 266.14 41.7 266.26 42.04 L 269.41 54.31 L 272.81 42.04 C 272.93 41.7 273.05 41.48 273.17 41.36 C 273.29 41.25 273.53 41.14 273.9 41.14 L 275.72 41.14 C 276.08 41.14 276.2 41.25 276.2 41.59 C 276.2 41.7 276.2 41.81 276.2 41.93 C 276.2 42.04 276.08 42.15 276.08 42.38 L 271.35 56.45 C 271.23 56.79 271.11 57.01 270.99 57.13 C 270.87 57.24 270.62 57.35 270.26 57.35 L 268.56 57.35 C 268.2 57.35 267.96 57.24 267.71 57.13 C 267.59 57.01 267.47 56.79 267.35 56.34 L 264.32 44.74 L 261.29 56.45 C 261.17 56.79 261.04 57.01 260.92 57.24 C 260.8 57.35 260.44 57.46 260.07 57.46 L 258.38 57.46 Z M 283.6 57.91 C 282.51 57.91 281.54 57.8 280.57 57.58 C 279.6 57.35 278.87 57.13 278.26 56.79 C 277.9 56.56 277.78 56.45 277.66 56.23 C 277.54 56 277.54 55.89 277.54 55.66 L 277.54 54.87 C 277.54 54.54 277.66 54.31 278.02 54.31 C 278.14 54.31 278.26 54.31 278.38 54.42 C 278.51 54.42 278.63 54.54 278.87 54.65 C 279.48 54.87 280.2 55.1 281.05 55.32 C 281.78 55.44 282.63 55.55 283.36 55.55 C 284.57 55.55 285.54 55.32 286.27 54.99 C 286.99 54.54 287.24 53.97 287.24 53.3 C 287.24 52.73 287.11 52.4 286.75 52.06 C 286.39 51.72 285.78 51.38 284.81 51.05 L 281.9 50.26 C 280.45 49.81 279.35 49.24 278.75 48.46 C 278.14 47.67 277.78 46.77 277.78 45.75 C 277.78 44.97 277.9 44.29 278.26 43.73 C 278.63 43.16 279.11 42.6 279.72 42.26 C 280.32 41.81 280.93 41.59 281.78 41.36 C 282.51 41.14 283.36 41.03 284.2 41.03 C 284.69 41.03 285.05 41.03 285.54 41.14 C 286.02 41.14 286.39 41.25 286.75 41.36 C 287.11 41.48 287.48 41.59 287.84 41.7 C 288.21 41.81 288.45 41.93 288.69 42.04 C 288.93 42.15 289.18 42.38 289.3 42.49 C 289.42 42.6 289.42 42.83 289.42 43.05 L 289.42 43.95 C 289.42 44.29 289.3 44.52 288.93 44.52 C 288.81 44.52 288.57 44.4 288.21 44.29 C 287.11 43.84 285.78 43.62 284.45 43.62 C 283.36 43.62 282.51 43.84 281.78 44.18 C 281.17 44.52 280.81 45.08 280.81 45.75 C 280.81 46.32 281.05 46.66 281.42 46.99 C 281.78 47.33 282.51 47.67 283.6 48.01 L 286.39 48.79 C 287.84 49.24 288.81 49.81 289.42 50.6 C 290.02 51.38 290.39 52.17 290.39 53.19 C 290.39 53.97 290.27 54.65 289.9 55.32 C 289.54 56 289.05 56.45 288.45 56.9 C 287.84 57.35 287.11 57.69 286.27 57.91 C 285.54 57.8 284.69 57.91 283.6 57.91 Z" fill="#ffffff" stroke="none" pointer-events="all" style="fill: light-dark(rgb(255, 255, 255), rgb(18, 18, 18));"/></g></g></g></g><g data-cell-id="10"><g/><g data-cell-id="11"><g><path d="M 9.65 86 C 4.07 86 0 81.13 0 76.33 L 0 35.56 C 0 31.06 3.85 26 9.85 26 L 46.73 26 C 51.86 26 56.25 30.45 56.25 35.72 L 56.25 76.18 C 56.25 81.76 51.77 86 46.56 86 Z" fill="#25a0de" stroke="none" pointer-events="all" style="fill: light-dark(rgb(37, 160, 222), rgb(32, 137, 191));"/><path d="M 9.65 86 C 4.07 86 0 81.14 0 76.33 L 0 73.58 C 0 79.23 4.65 83.4 9.73 83.4 L 46.63 83.4 C 51.77 83.4 56.25 79.09 56.25 73.55 L 56.25 76.18 C 56.25 81.76 51.78 86 46.56 86 Z" fill-opacity="0.3" fill="#000000" stroke="none" pointer-events="all" style="fill: light-dark(rgb(0, 0, 0), rgb(237, 237, 237));"/></g></g><g data-cell-id="12"><g><image x="2.63" y="30.5" width="50" height="50" xlink:href="https://cdn3.iconfinder.com/data/icons/social-media-chamfered-corner/154/telegram-128.png" preserveAspectRatio="none"/></g></g></g><g data-cell-id="13"><g><path d="M 53.13 56 Q 53.13 56 209.76 56" fill="none" stroke="#6c8ebf" stroke-width="2" stroke-miterlimit="10" stroke-dasharray="6 6" pointer-events="stroke" style="stroke: light-dark(rgb(108, 142, 191), rgb(92, 121, 163)); animation: 375ms linear 0s infinite normal none running ge-flow-animation-PfJCYjbcLmRAFkZlCOa0; stroke-dashoffset: 12;"/><path d="M 215.76 56 L 207.76 60 L 209.76 56 L 207.76 52 Z" fill="#6c8ebf" stroke="#6c8ebf" stroke-width="2" stroke-miterlimit="10" pointer-events="all" style="fill: light-dark(rgb(108, 142, 191), rgb(92, 121, 163)); stroke: light-dark(rgb(108, 142, 191), rgb(92, 121, 163));"/></g></g><g data-cell-id="15"><g><path d="M 547 55.97 L 685.01 55.97" fill="none" stroke="#6c8ebf" stroke-width="2" stroke-miterlimit="10" stroke-dasharray="6 6" pointer-events="stroke" style="stroke: light-dark(rgb(108, 142, 191), rgb(92, 121, 163)); animation: 375ms linear 0s infinite normal none running ge-flow-animation-PfJCYjbcLmRAFkZlCOa0; stroke-dashoffset: 12;"/><path d="M 691.01 55.97 L 683.01 59.97 L 685.01 55.97 L 683.01 51.97 Z" fill="#6c8ebf" stroke="#6c8ebf" stroke-width="2" stroke-miterlimit="10" pointer-events="all" style="fill: light-dark(rgb(108, 142, 191), rgb(92, 121, 163)); stroke: light-dark(rgb(108, 142, 191), rgb(92, 121, 163));"/></g></g><g data-cell-id="16"><g><rect x="457" y="12.8" width="90" height="86.4" fill="#ffffff" stroke="none" pointer-events="all" style="fill: light-dark(#ffffff, var(--ge-dark-color, #121212));"/><image x="456.5" y="12.3" width="90" height="86.4" xlink:href="https://app.diagrams.net/img/lib/mscae/Chart.svg"/></g></g><g data-cell-id="17"><g><path d="M 305.91 56 L 448.76 56" fill="none" stroke="#d79b00" stroke-width="2" stroke-miterlimit="10" stroke-dasharray="6 6" pointer-events="stroke" style="stroke: light-dark(rgb(215, 155, 0), rgb(153, 101, 0)); animation: 375ms linear 0s infinite normal none running ge-flow-animation-PfJCYjbcLmRAFkZlCOa0; stroke-dashoffset: 12;"/><path d="M 454.76 56 L 446.76 60 L 448.76 56 L 446.76 52 Z" fill="#d79b00" stroke="#d79b00" stroke-width="2" stroke-miterlimit="10" pointer-events="all" style="fill: light-dark(rgb(215, 155, 0), rgb(153, 101, 0)); stroke: light-dark(rgb(215, 155, 0), rgb(153, 101, 0));"/></g></g><g data-cell-id="18"><g><rect x="697" y="-0.5" width="110.5" height="110.5" fill="#ffffff" stroke="none" pointer-events="all" style="fill: light-dark(#ffffff, var(--ge-dark-color, #121212));"/><image x="696.5" y="-1" width="110.5" height="110.5" xlink:href="https://cdn4.iconfinder.com/data/icons/success-filloutline/64/Income-cash-money-banking-business-128.png" preserveAspectRatio="none"/></g></g></g></g></g></svg>